<svg xmlns="http://www.w3.org/2000/svg" width="1200" height="630" viewBox="0 0 1200 630" role="img" aria-labelledby="title desc">
  <title id="title">Memric - Decision ledger for investment firms</title>
  <desc id="desc">A social preview showing a raw investment memo becoming typed decision memory.</desc>
  <rect width="1200" height="630" fill="#fcfcf8"/>
  <path d="M0 120H1200M0 240H1200M0 360H1200M0 480H1200M120 0V630M240 0V630M360 0V630M480 0V630M600 0V630M720 0V630M840 0V630M960 0V630M1080 0V630" stroke="#111" stroke-opacity=".055"/>
  <rect x="72" y="64" width="1056" height="502" fill="none" stroke="#111" stroke-width="2"/>
  <text x="104" y="110" font-family="IBM Plex Mono, monospace" font-size="18" letter-spacing="3" fill="#d42a1f">MEMRIC / DECISION LEDGER</text>
  <text x="104" y="205" font-family="Georgia, serif" font-size="54" font-weight="700" fill="#111">Your firm remembers</text>
  <text x="104" y="272" font-family="Georgia, serif" font-size="54" font-weight="700" fill="#111">documents.</text>
  <text x="104" y="339" font-family="Georgia, serif" font-size="54" font-weight="700" fill="#111">Memric keeps judgment.</text>
  <rect x="770" y="146" width="295" height="338" fill="#111"/>
  <text x="795" y="184" font-family="IBM Plex Mono, monospace" font-size="13" letter-spacing="2" fill="#8a8a8a">TYPED MEMORY</text>
  <g font-family="Inter, Arial, sans-serif" font-size="17" font-weight="700">
    <rect x="795" y="214" width="245" height="58" fill="#fcfcf8" stroke="#1a7a3f"/>
    <text x="813" y="249" fill="#111">Prediction resolved</text>
    <rect x="795" y="292" width="245" height="58" fill="#fcfcf8" stroke="#d42a1f"/>
    <text x="813" y="327" fill="#111">Principle retired</text>
    <rect x="795" y="370" width="245" height="58" fill="#fcfcf8" stroke="#1a7a3f"/>
    <text x="813" y="405" fill="#111">Dissent vindicated</text>
  </g>
  <text x="104" y="520" font-family="IBM Plex Mono, monospace" font-size="18" letter-spacing="2" fill="#596159">source span captured + lineage kept + claims replayable</text>
</svg>
